<svg width="1024" height="1024" xmlns="http://www.w3.org/2000/svg" p-id="1708" version="1.1" class="icon" t="1719407282852">

 <g>
  <title>Layer 1</title>
  <path stroke="null" id="svg_1" p-id="1709" fill="#ffffff" d="m607.95049,181.78748c89.2025,9.05378 160.75633,63.41529 176.02627,156.59536l-51.64153,0l83.29403,125.50943l83.37077,-125.47057l-57.47327,0c-15.26993,-125.50943 -109.1148,-207.10999 -227.6678,-218.72835c-16.42093,-1.32115 -31.6525,12.90066 -31.6525,31.04707c1.11263,15.54296 11.66347,29.76477 25.74403,31.08593l0,-0.03886zm-129.0271,-63.45415l-289.78344,0c-16.38257,0 -29.31213,14.22181 -29.31213,32.36822l0,279.57905c0,18.10755 12.92957,32.36822 29.31213,32.36822l289.78344,0c16.42093,0 29.31213,-14.26067 29.31213,-32.36822l0,-279.57905c0,-18.14641 -12.85283,-32.36822 -29.31213,-32.36822zm-28.16113,282.1825l-233.4228,0l0,-220.01065l233.46117,0l0,220.0495l-0.03837,0l0,-0.03886zm-28.16113,429.76294c-99.75333,-9.09263 -175.9879,-76.39367 -179.51764,-187.72014l55.1329,0l-83.25567,-125.50943l-83.29403,125.47057l55.1329,0c2.302,143.6947 102.05533,236.83591 229.9698,249.81428c16.42093,1.28229 31.69087,-12.97837 31.69087,-31.08593a30.57823,30.96935 0 0 0 -25.85913,-31.04707l0,0.07771zm420.07664,-280.93906l-289.8218,0c-16.49767,0 -29.3505,14.29953 -29.3505,32.36822l0,280.93906c0,18.02984 12.85283,32.25165 29.3505,32.25165l289.74507,0c16.42093,0 29.27377,-14.22181 29.27377,-32.25165l0,-280.93906c0.03837,-18.06869 -14.00383,-32.36822 -29.19703,-32.36822zm-28.23787,282.1825l-233.4228,0l0,-218.76721l233.4228,0l0,218.76721z"/>
 </g>
</svg>