<?xml version="1.0" standalone="no"?>
<!DOCTYPE svg PUBLIC "-//W3C//DTD SVG 1.1//EN" "http://www.w3.org/Graphics/SVG/1.1/DTD/svg11.dtd"><svg t="1719407282852"
  class="icon" viewBox="0 0 1024 1024" version="1.1" xmlns="http://www.w3.org/2000/svg" p-id="1708"
  xmlns:xlink="http://www.w3.org/1999/xlink" width="512" height="512">
  <path
    d="M635.5968 83.6096c119.04 11.9296 214.528 83.5584 234.9056 206.336h-68.9152l111.1552 165.376L1024 289.9968h-76.6976c-20.3776-165.376-145.6128-272.896-303.8208-288.2048-21.9136-1.7408-42.24 16.9984-42.24 40.9088 1.4848 20.48 15.5648 39.2192 34.3552 40.96zM463.4112 0H76.6976C54.8352 0 37.5808 18.7392 37.5808 42.6496v368.384c0 23.8592 17.2544 42.6496 39.1168 42.6496h386.7136c21.9136 0 39.1168-18.7904 39.1168-42.6496V42.6496C502.528 18.7392 485.376 0 463.4112 0z m-37.5808 371.8144H114.3296V81.92h311.552v289.9456h-0.0512z m-37.5808 566.272c-133.12-11.9808-234.8544-100.6592-239.5648-247.3472h73.5744l-111.104-165.376L0 690.688h73.5744c3.072 189.3376 136.192 312.064 306.8928 329.1648 21.9136 1.6896 42.2912-17.1008 42.2912-40.96a40.8064 40.8064 0 0 0-34.5088-40.9088z m560.5888-370.176h-386.7648c-22.016 0-39.168 18.8416-39.168 42.6496v370.176c0 23.7568 17.152 42.496 39.168 42.496h386.6624c21.9136 0 39.0656-18.7392 39.0656-42.496v-370.176c0.0512-23.808-18.688-42.6496-38.9632-42.6496z m-37.6832 371.8144h-311.5008v-288.256h311.5008v288.256z"
    fill="#000000" p-id="1709"></path>
</svg>