<svg width="1024" height="1024" xmlns="http://www.w3.org/2000/svg" p-id="1708" version="1.1" class="icon" t="1719407282852">

 <g>
  <title>Layer 1</title>
  <path stroke="null" id="svg_1" p-id="1709" fill="#000000" d="m599.58796,205.2973c84.35875,8.54856 152.02716,59.87664 166.46792,147.85715l-48.83736,0l78.77111,118.50586l78.84368,-118.46917l-54.35243,0c-14.44077,-118.50586 -103.18979,-195.55301 -215.30529,-206.52305c-15.52927,-1.24743 -29.93375,12.18079 -29.93375,29.31461c1.05222,14.67565 11.03013,28.10387 24.34612,29.3513l0,-0.03669zm-122.02084,-59.91333l-274.048,0c-15.49298,0 -27.72047,13.42822 -27.72047,30.56204l0,263.97821c0,17.09713 12.22748,30.56204 27.72047,30.56204l274.048,0c15.52927,0 27.72047,-13.46491 27.72047,-30.56204l0,-263.97821c0,-17.13382 -12.15492,-30.56204 -27.72047,-30.56204zm-26.63197,266.43638l-220.74779,0l0,-207.73379l220.78407,0l0,207.77048l-0.03628,0l0,-0.03669zm-26.63197,405.78166c-94.33666,-8.58525 -166.43164,-72.13081 -169.76971,-177.24514l52.13915,0l-78.73483,-118.50586l-78.77111,118.46917l52.13915,0c2.177,135.67636 96.51366,223.62018 217.48229,235.87435c15.52927,1.21074 29.97003,-12.25417 29.97003,-29.3513a28.91782,29.24123 0 0 0 -24.45497,-29.31461l0,0.07338zm397.2662,-265.26233l-274.08429,0c-15.60183,0 -27.75675,13.5016 -27.75675,30.56204l0,265.26233c0,17.02375 12.15492,30.45197 27.75675,30.45197l274.01172,0c15.52927,0 27.68418,-13.42822 27.68418,-30.45197l0,-265.26233c0.03628,-17.06044 -13.24342,-30.56204 -27.61162,-30.56204zm-26.70453,266.43638l-220.74779,0l0,-206.55974l220.74779,0l0,206.55974z"/>
 </g>
</svg>